<svg xmlns="http://www.w3.org/2000/svg" width="155" height="47" fill="none" viewBox="0 0 155 47"><path fill="#fff" d="M1.68 23V6.2H5.592L12.552 17.624H10.488L17.256 6.2H21.168L21.216 23H16.848L16.8 12.848H17.544L12.48 21.344H10.368L5.16 12.848H6.072V23H1.68ZM22.5624 23L29.9784 6.2H34.6584L42.0984 23H37.1544L31.3464 8.528H33.2184L27.4104 23H22.5624ZM26.6184 19.736L27.8424 16.232H36.0504L37.2744 19.736H26.6184ZM43.4456 23V6.2H47.3576L54.3176 17.624H52.2536L59.0216 6.2H62.9336L62.9816 23H58.6136L58.5656 12.848H59.3096L54.2456 21.344H52.1336L46.9256 12.848H47.8376V23H43.4456ZM64.3281 23L71.7441 6.2H76.4241L83.8641 23H78.9201L73.1121 8.528H74.9841L69.1761 23H64.3281ZM68.3841 19.736L69.6081 16.232H77.8161L79.0401 19.736H68.3841ZM85.2113 23V6.2H89.1233L98.3873 17.384H96.5393V6.2H101.195V23H97.2833L88.0193 11.816H89.8672V23H85.2113ZM113.019 23.336C111.675 23.336 110.435 23.12 109.299 22.688C108.163 22.256 107.171 21.648 106.323 20.864C105.491 20.064 104.843 19.136 104.379 18.08C103.915 17.024 103.683 15.864 103.683 14.6C103.683 13.336 103.915 12.176 104.379 11.12C104.843 10.064 105.491 9.144 106.323 8.36C107.171 7.56 108.163 6.944 109.299 6.512C110.435 6.08 111.675 5.864 113.019 5.864C114.379 5.864 115.619 6.08 116.739 6.512C117.875 6.944 118.859 7.56 119.691 8.36C120.523 9.144 121.171 10.064 121.635 11.12C122.115 12.176 122.355 13.336 122.355 14.6C122.355 15.864 122.115 17.032 121.635 18.104C121.171 19.16 120.523 20.08 119.691 20.864C118.859 21.648 117.875 22.256 116.739 22.688C115.619 23.12 114.379 23.336 113.019 23.336ZM113.019 19.4C113.659 19.4 114.251 19.288 114.795 19.064C115.355 18.84 115.835 18.52 116.235 18.104C116.651 17.672 116.971 17.16 117.195 16.568C117.435 15.976 117.555 15.32 117.555 14.6C117.555 13.864 117.435 13.208 117.195 12.632C116.971 12.04 116.651 11.536 116.235 11.12C115.835 10.688 115.355 10.36 114.795 10.136C114.251 9.912 113.659 9.8 113.019 9.8C112.379 9.8 111.779 9.912 111.219 10.136C110.675 10.36 110.195 10.688 109.779 11.12C109.379 11.536 109.059 12.04 108.819 12.632C108.595 13.208 108.483 13.864 108.483 14.6C108.483 15.32 108.595 15.976 108.819 16.568C109.059 17.16 109.379 17.672 109.779 18.104C110.195 18.52 110.675 18.84 111.219 19.064C111.779 19.288 112.379 19.4 113.019 19.4ZM128.186 23V9.968H123.026V6.2H138.074V9.968H132.938V23H128.186ZM144.212 12.704H152.012V16.256H144.212V12.704ZM144.548 19.328H153.332V23H139.844V6.2H153.02V9.872H144.548V19.328Z"/><path fill="#FFFDF7" fill-rule="evenodd" d="M76.7933 37.878C91.8679 29.7356 108.763 27.6526 127.585 38.098L126.782 39.5957C108.386 29.3871 91.8899 31.5354 77.189 39.5979C76.9393 39.7347 76.6384 39.7339 76.3892 39.5957C57.9928 29.3871 41.4973 31.5354 26.7964 39.5979L26 38.0958C41.069 29.8317 57.9648 27.5912 76.7933 37.878Z" clip-rule="evenodd"/><path fill="#FFFDF7" fill-rule="evenodd" d="M76.7933 44.578C91.8679 36.4353 108.763 34.3526 127.585 44.7977L126.782 46.2957C108.386 36.087 91.8899 38.2353 77.189 46.2976C76.9393 46.4347 76.6384 46.4339 76.3892 46.2957C57.9928 36.087 41.4973 38.2353 26.7964 46.2976L26 44.7958C41.069 36.5316 57.9648 34.2911 76.7933 44.578Z" clip-rule="evenodd"/></svg>