<svg width="20" height="21" viewBox="0 0 20 21" fill="none" xmlns="http://www.w3.org/2000/svg">
<g clip-path="url(#clip0_15_561)">
<path d="M19.5327 10.587C19.5327 9.76761 19.4662 9.16967 19.3223 8.54959H9.96565V12.2479H15.4578C15.3471 13.167 14.7492 14.5511 13.4204 15.4812L13.4018 15.605L16.3602 17.8968L16.5651 17.9173C18.4475 16.1788 19.5327 13.621 19.5327 10.587Z" fill="#4285F4"/>
<path d="M9.96565 20.3312C12.6563 20.3312 14.9152 19.4453 16.5651 17.9173L13.4204 15.4812C12.5789 16.0681 11.4494 16.4778 9.96565 16.4778C7.3303 16.4778 5.09358 14.7394 4.29626 12.3365L4.17939 12.3465L1.1032 14.7272L1.06297 14.839C2.70175 18.0944 6.06793 20.3312 9.96565 20.3312Z" fill="#34A853"/>
<path d="M4.29626 12.3365C4.08588 11.7165 3.96412 11.052 3.96412 10.3656C3.96412 9.67899 4.08588 9.01464 4.28519 8.39456L4.27962 8.2625L1.16489 5.84357L1.06298 5.89204C0.387557 7.24296 0 8.75998 0 10.3656C0 11.9711 0.387557 13.4881 1.06298 14.839L4.29626 12.3365Z" fill="#FBBC05"/>
<path d="M9.96565 4.25326C11.8369 4.25326 13.0992 5.06158 13.819 5.73708L16.6315 2.99097C14.9042 1.3854 12.6563 0.399902 9.96565 0.399902C6.06793 0.399902 2.70175 2.63662 1.06297 5.89204L4.28519 8.39456C5.09358 5.99173 7.3303 4.25326 9.96565 4.25326Z" fill="#EB4335"/>
</g>
<defs>
<clipPath id="clip0_15_561">
<rect width="19.542" height="20" fill="white" transform="translate(0 0.399902)"/>
</clipPath>
</defs>
</svg>
